<svg width="1024" height="1024" viewBox="0 0 1024 1024" fill="none" xmlns="http://www.w3.org/2000/svg">
<path d="M0 25C0 11.1929 11.1929 0 25 0H999C1012.81 0 1024 11.1929 1024 25V999C1024 1012.81 1012.81 1024 999 1024H25C11.1929 1024 0 1012.81 0 999V25Z" fill="black"/>
<path d="M454.502 655V525C454.502 516.5 453.919 507.083 452.752 496.75C451.585 486.417 448.835 476.5 444.502 467C440.335 457.333 434.002 449.417 425.502 443.25C417.169 437.083 405.835 434 391.502 434C383.835 434 376.252 435.25 368.752 437.75C361.252 440.25 354.419 444.583 348.252 450.75C342.252 456.75 337.419 465.083 333.752 475.75C330.085 486.25 328.252 499.75 328.252 516.25L292.502 501C292.502 478 296.919 457.167 305.752 438.5C314.752 419.833 327.919 405 345.252 394C362.585 382.833 383.919 377.25 409.252 377.25C429.252 377.25 445.752 380.583 458.752 387.25C471.752 393.917 482.085 402.417 489.752 412.75C497.419 423.083 503.085 434.083 506.752 445.75C510.419 457.417 512.752 468.5 513.752 479C514.919 489.333 515.502 497.75 515.502 504.25V655H454.502ZM267.252 655V385H321.002V468.75H328.252V655H267.252ZM659.99 662.5C626.657 662.5 599.574 655 578.74 640C557.907 625 545.24 603.917 540.74 576.75L602.24 567.25C605.407 580.583 612.407 591.083 623.24 598.75C634.074 606.417 647.74 610.25 664.24 610.25C678.74 610.25 689.907 607.417 697.74 601.75C705.74 595.917 709.74 588 709.74 578C709.74 571.833 708.24 566.917 705.24 563.25C702.407 559.417 696.074 555.75 686.24 552.25C676.407 548.75 661.324 544.333 640.99 539C618.324 533 600.324 526.583 586.99 519.75C573.657 512.75 564.074 504.5 558.24 495C552.407 485.5 549.49 474 549.49 460.5C549.49 443.667 553.907 429 562.74 416.5C571.574 404 583.907 394.417 599.74 387.75C615.574 380.917 634.24 377.5 655.74 377.5C676.74 377.5 695.324 380.75 711.49 387.25C727.824 393.75 740.99 403 750.99 415C760.99 427 767.157 441.083 769.49 457.25L707.99 468.25C706.49 456.75 701.24 447.667 692.24 441C683.407 434.333 671.574 430.583 656.74 429.75C642.574 428.917 631.157 431.083 622.49 436.25C613.824 441.25 609.49 448.333 609.49 457.5C609.49 462.667 611.24 467.083 614.74 470.75C618.24 474.417 625.24 478.083 635.74 481.75C646.407 485.417 662.24 489.917 683.24 495.25C704.74 500.75 721.907 507.083 734.74 514.25C747.74 521.25 757.074 529.667 762.74 539.5C768.574 549.333 771.49 561.25 771.49 575.25C771.49 602.417 761.574 623.75 741.74 639.25C722.074 654.75 694.824 662.5 659.99 662.5Z" fill="white"/>
</svg>
