<svg width="505" height="286" viewBox="0 0 505 286" fill="none" xmlns="http://www.w3.org/2000/svg">
<path d="M187.502 278V148C187.502 139.5 186.919 130.083 185.752 119.75C184.585 109.417 181.835 99.5 177.502 90C173.335 80.3333 167.002 72.4167 158.502 66.25C150.169 60.0833 138.835 57 124.502 57C116.835 57 109.252 58.25 101.752 60.75C94.252 63.25 87.4186 67.5833 81.252 73.75C75.252 79.75 70.4186 88.0833 66.752 98.75C63.0853 109.25 61.252 122.75 61.252 139.25L25.502 124C25.502 101 29.9186 80.1667 38.752 61.5C47.752 42.8333 60.9186 28 78.252 17C95.5853 5.83332 116.919 0.249985 142.252 0.249985C162.252 0.249985 178.752 3.58331 191.752 10.25C204.752 16.9167 215.085 25.4167 222.752 35.75C230.419 46.0833 236.085 57.0833 239.752 68.75C243.419 80.4167 245.752 91.5 246.752 102C247.919 112.333 248.502 120.75 248.502 127.25V278H187.502ZM0.251956 278V7.99999H54.002V91.75H61.252V278H0.251956ZM392.99 285.5C359.657 285.5 332.574 278 311.74 263C290.907 248 278.24 226.917 273.74 199.75L335.24 190.25C338.407 203.583 345.407 214.083 356.24 221.75C367.074 229.417 380.74 233.25 397.24 233.25C411.74 233.25 422.907 230.417 430.74 224.75C438.74 218.917 442.74 211 442.74 201C442.74 194.833 441.24 189.917 438.24 186.25C435.407 182.417 429.074 178.75 419.24 175.25C409.407 171.75 394.324 167.333 373.99 162C351.324 156 333.324 149.583 319.99 142.75C306.657 135.75 297.074 127.5 291.24 118C285.407 108.5 282.49 97 282.49 83.5C282.49 66.6667 286.907 52 295.74 39.5C304.574 27 316.907 17.4167 332.74 10.75C348.574 3.91666 367.24 0.499996 388.74 0.499996C409.74 0.499996 428.324 3.74999 444.49 10.25C460.824 16.75 473.99 26 483.99 38C493.99 50 500.157 64.0833 502.49 80.25L440.99 91.25C439.49 79.75 434.24 70.6667 425.24 64C416.407 57.3333 404.574 53.5833 389.74 52.75C375.574 51.9167 364.157 54.0833 355.49 59.25C346.824 64.25 342.49 71.3333 342.49 80.5C342.49 85.6667 344.24 90.0833 347.74 93.75C351.24 97.4167 358.24 101.083 368.74 104.75C379.407 108.417 395.24 112.917 416.24 118.25C437.74 123.75 454.907 130.083 467.74 137.25C480.74 144.25 490.074 152.667 495.74 162.5C501.574 172.333 504.49 184.25 504.49 198.25C504.49 225.417 494.574 246.75 474.74 262.25C455.074 277.75 427.824 285.5 392.99 285.5Z" fill="black"/>
</svg>
