<svg width="1024" height="1024" viewBox="0 0 1024 1024" fill="none" xmlns="http://www.w3.org/2000/svg">
<path d="M0 0H1024V1024H0V0Z" fill="black"/>
<path d="M360.358 540V514C360.358 512.3 360.241 510.417 360.008 508.35C359.774 506.283 359.224 504.3 358.358 502.4C357.524 500.467 356.258 498.883 354.558 497.65C352.891 496.417 350.624 495.8 347.758 495.8C346.224 495.8 344.708 496.05 343.208 496.55C341.708 497.05 340.341 497.917 339.108 499.15C337.908 500.35 336.941 502.017 336.208 504.15C335.474 506.25 335.108 508.95 335.108 512.25L327.958 509.2C327.958 504.6 328.841 500.433 330.608 496.7C332.408 492.967 335.041 490 338.508 487.8C341.974 485.567 346.241 484.45 351.308 484.45C355.308 484.45 358.608 485.117 361.208 486.45C363.808 487.783 365.874 489.483 367.408 491.55C368.941 493.617 370.074 495.817 370.808 498.15C371.541 500.483 372.008 502.7 372.208 504.8C372.441 506.867 372.558 508.55 372.558 509.85V540H360.358ZM322.908 540V486H333.658V502.75H335.108V540H322.908ZM395.705 541.5C391.805 541.5 388.505 540.767 385.805 539.3C383.105 537.8 381.055 535.817 379.655 533.35C378.289 530.883 377.605 528.167 377.605 525.2C377.605 522.6 378.039 520.267 378.905 518.2C379.772 516.1 381.105 514.3 382.905 512.8C384.705 511.267 387.039 510.017 389.905 509.05C392.072 508.35 394.605 507.717 397.505 507.15C400.439 506.583 403.605 506.067 407.005 505.6C410.439 505.1 414.022 504.567 417.755 504L413.455 506.45C413.489 502.717 412.655 499.967 410.955 498.2C409.255 496.433 406.389 495.55 402.355 495.55C399.922 495.55 397.572 496.117 395.305 497.25C393.039 498.383 391.455 500.333 390.555 503.1L379.555 499.65C380.889 495.083 383.422 491.417 387.155 488.65C390.922 485.883 395.989 484.5 402.355 484.5C407.155 484.5 411.372 485.283 415.005 486.85C418.672 488.417 421.389 490.983 423.155 494.55C424.122 496.45 424.705 498.4 424.905 500.4C425.105 502.367 425.205 504.517 425.205 506.85V540H414.655V528.3L416.405 530.2C413.972 534.1 411.122 536.967 407.855 538.8C404.622 540.6 400.572 541.5 395.705 541.5ZM398.105 531.9C400.839 531.9 403.172 531.417 405.105 530.45C407.039 529.483 408.572 528.3 409.705 526.9C410.872 525.5 411.655 524.183 412.055 522.95C412.689 521.417 413.039 519.667 413.105 517.7C413.205 515.7 413.255 514.083 413.255 512.85L416.955 513.95C413.322 514.517 410.205 515.017 407.605 515.45C405.005 515.883 402.772 516.3 400.905 516.7C399.039 517.067 397.389 517.483 395.955 517.95C394.555 518.45 393.372 519.033 392.405 519.7C391.439 520.367 390.689 521.133 390.155 522C389.655 522.867 389.405 523.883 389.405 525.05C389.405 526.383 389.739 527.567 390.405 528.6C391.072 529.6 392.039 530.4 393.305 531C394.605 531.6 396.205 531.9 398.105 531.9ZM498.073 540V507.2C498.073 503.5 497.156 500.617 495.323 498.55C493.489 496.45 491.006 495.4 487.873 495.4C485.939 495.4 484.206 495.85 482.673 496.75C481.139 497.617 479.923 498.917 479.023 500.65C478.123 502.35 477.673 504.383 477.673 506.75L472.323 503.6C472.289 499.867 473.123 496.583 474.823 493.75C476.556 490.883 478.889 488.65 481.823 487.05C484.756 485.45 488.023 484.65 491.623 484.65C497.589 484.65 502.156 486.45 505.323 490.05C508.523 493.617 510.123 498.317 510.123 504.15V540H498.073ZM433.123 540V486H443.773V502.75H445.273V540H433.123ZM465.673 540V507.35C465.673 503.583 464.756 500.65 462.923 498.55C461.089 496.45 458.589 495.4 455.423 495.4C452.356 495.4 449.889 496.45 448.023 498.55C446.189 500.65 445.273 503.383 445.273 506.75L439.873 503.15C439.873 499.65 440.739 496.5 442.473 493.7C444.206 490.9 446.539 488.7 449.473 487.1C452.439 485.467 455.756 484.65 459.423 484.65C463.456 484.65 466.823 485.517 469.523 487.25C472.256 488.95 474.289 491.283 475.623 494.25C476.989 497.183 477.673 500.5 477.673 504.2V540H465.673ZM541.835 541.5C536.368 541.5 531.568 540.317 527.435 537.95C523.302 535.583 520.068 532.3 517.735 528.1C515.435 523.9 514.285 519.067 514.285 513.6C514.285 507.7 515.418 502.583 517.685 498.25C519.952 493.883 523.102 490.5 527.135 488.1C531.168 485.7 535.835 484.5 541.135 484.5C546.735 484.5 551.485 485.817 555.385 488.45C559.318 491.05 562.235 494.733 564.135 499.5C566.035 504.267 566.752 509.883 566.285 516.35H554.335V511.95C554.302 506.083 553.268 501.8 551.235 499.1C549.202 496.4 546.002 495.05 541.635 495.05C536.702 495.05 533.035 496.583 530.635 499.65C528.235 502.683 527.035 507.133 527.035 513C527.035 518.467 528.235 522.7 530.635 525.7C533.035 528.7 536.535 530.2 541.135 530.2C544.102 530.2 546.652 529.55 548.785 528.25C550.952 526.917 552.618 525 553.785 522.5L565.685 526.1C563.618 530.967 560.418 534.75 556.085 537.45C551.785 540.15 547.035 541.5 541.835 541.5ZM523.235 516.35V507.25H560.385V516.35H523.235ZM593.291 541.5C586.625 541.5 581.208 540 577.041 537C572.875 534 570.341 529.783 569.441 524.35L581.741 522.45C582.375 525.117 583.775 527.217 585.941 528.75C588.108 530.283 590.841 531.05 594.141 531.05C597.041 531.05 599.275 530.483 600.841 529.35C602.441 528.183 603.241 526.6 603.241 524.6C603.241 523.367 602.941 522.383 602.341 521.65C601.775 520.883 600.508 520.15 598.541 519.45C596.575 518.75 593.558 517.867 589.491 516.8C584.958 515.6 581.358 514.317 578.691 512.95C576.025 511.55 574.108 509.9 572.941 508C571.775 506.1 571.191 503.8 571.191 501.1C571.191 497.733 572.075 494.8 573.841 492.3C575.608 489.8 578.075 487.883 581.241 486.55C584.408 485.183 588.141 484.5 592.441 484.5C596.641 484.5 600.358 485.15 603.591 486.45C606.858 487.75 609.491 489.6 611.491 492C613.491 494.4 614.725 497.217 615.191 500.45L602.891 502.65C602.591 500.35 601.541 498.533 599.741 497.2C597.975 495.867 595.608 495.117 592.641 494.95C589.808 494.783 587.525 495.217 585.791 496.25C584.058 497.25 583.191 498.667 583.191 500.5C583.191 501.533 583.541 502.417 584.241 503.15C584.941 503.883 586.341 504.617 588.441 505.35C590.575 506.083 593.741 506.983 597.941 508.05C602.241 509.15 605.675 510.417 608.241 511.85C610.841 513.25 612.708 514.933 613.841 516.9C615.008 518.867 615.591 521.25 615.591 524.05C615.591 529.483 613.608 533.75 609.641 536.85C605.708 539.95 600.258 541.5 593.291 541.5ZM647.493 541.5C642.226 541.5 637.81 540.25 634.243 537.75C630.676 535.25 627.993 531.85 626.193 527.55C624.393 523.217 623.493 518.367 623.493 513C623.493 507.567 624.393 502.7 626.193 498.4C627.993 494.1 630.626 490.717 634.093 488.25C637.593 485.75 641.91 484.5 647.043 484.5C652.143 484.5 656.56 485.75 660.293 488.25C664.06 490.717 666.976 494.1 669.043 498.4C671.11 502.667 672.143 507.533 672.143 513C672.143 518.4 671.126 523.25 669.093 527.55C667.06 531.85 664.193 535.25 660.493 537.75C656.793 540.25 652.46 541.5 647.493 541.5ZM621.443 564V486H632.093V523.9H633.593V564H621.443ZM645.643 530.7C648.776 530.7 651.36 529.917 653.393 528.35C655.426 526.783 656.926 524.667 657.893 522C658.893 519.3 659.393 516.3 659.393 513C659.393 509.733 658.893 506.767 657.893 504.1C656.893 501.4 655.343 499.267 653.243 497.7C651.143 496.1 648.476 495.3 645.243 495.3C642.176 495.3 639.676 496.05 637.743 497.55C635.81 499.017 634.376 501.083 633.443 503.75C632.543 506.383 632.093 509.467 632.093 513C632.093 516.5 632.543 519.583 633.443 522.25C634.376 524.917 635.826 527 637.793 528.5C639.793 529.967 642.41 530.7 645.643 530.7ZM693.264 541.5C689.364 541.5 686.064 540.767 683.364 539.3C680.664 537.8 678.614 535.817 677.214 533.35C675.847 530.883 675.164 528.167 675.164 525.2C675.164 522.6 675.597 520.267 676.464 518.2C677.331 516.1 678.664 514.3 680.464 512.8C682.264 511.267 684.597 510.017 687.464 509.05C689.631 508.35 692.164 507.717 695.064 507.15C697.997 506.583 701.164 506.067 704.564 505.6C707.997 505.1 711.581 504.567 715.314 504L711.014 506.45C711.047 502.717 710.214 499.967 708.514 498.2C706.814 496.433 703.947 495.55 699.914 495.55C697.481 495.55 695.131 496.117 692.864 497.25C690.597 498.383 689.014 500.333 688.114 503.1L677.114 499.65C678.447 495.083 680.981 491.417 684.714 488.65C688.481 485.883 693.547 484.5 699.914 484.5C704.714 484.5 708.931 485.283 712.564 486.85C716.231 488.417 718.947 490.983 720.714 494.55C721.681 496.45 722.264 498.4 722.464 500.4C722.664 502.367 722.764 504.517 722.764 506.85V540H712.214V528.3L713.964 530.2C711.531 534.1 708.681 536.967 705.414 538.8C702.181 540.6 698.131 541.5 693.264 541.5ZM695.664 531.9C698.397 531.9 700.731 531.417 702.664 530.45C704.597 529.483 706.131 528.3 707.264 526.9C708.431 525.5 709.214 524.183 709.614 522.95C710.247 521.417 710.597 519.667 710.664 517.7C710.764 515.7 710.814 514.083 710.814 512.85L714.514 513.95C710.881 514.517 707.764 515.017 705.164 515.45C702.564 515.883 700.331 516.3 698.464 516.7C696.597 517.067 694.947 517.483 693.514 517.95C692.114 518.45 690.931 519.033 689.964 519.7C688.997 520.367 688.247 521.133 687.714 522C687.214 522.867 686.964 523.883 686.964 525.05C686.964 526.383 687.297 527.567 687.964 528.6C688.631 529.6 689.597 530.4 690.864 531C692.164 531.6 693.764 531.9 695.664 531.9ZM754.231 541.5C748.665 541.5 743.915 540.267 739.981 537.8C736.048 535.3 733.031 531.9 730.931 527.6C728.865 523.3 727.815 518.433 727.781 513C727.815 507.467 728.898 502.567 731.031 498.3C733.198 494 736.265 490.633 740.231 488.2C744.198 485.733 748.915 484.5 754.381 484.5C760.515 484.5 765.698 486.05 769.931 489.15C774.198 492.217 776.981 496.417 778.281 501.75L766.281 505C765.348 502.1 763.798 499.85 761.631 498.25C759.465 496.617 756.998 495.8 754.231 495.8C751.098 495.8 748.515 496.55 746.481 498.05C744.448 499.517 742.948 501.55 741.981 504.15C741.015 506.75 740.531 509.7 740.531 513C740.531 518.133 741.681 522.283 743.981 525.45C746.281 528.617 749.698 530.2 754.231 530.2C757.431 530.2 759.948 529.467 761.781 528C763.648 526.533 765.048 524.417 765.981 521.65L778.281 524.4C776.615 529.9 773.698 534.133 769.531 537.1C765.365 540.033 760.265 541.5 754.231 541.5ZM806.386 541.5C800.919 541.5 796.119 540.317 791.986 537.95C787.853 535.583 784.619 532.3 782.286 528.1C779.986 523.9 778.836 519.067 778.836 513.6C778.836 507.7 779.969 502.583 782.236 498.25C784.503 493.883 787.653 490.5 791.686 488.1C795.719 485.7 800.386 484.5 805.686 484.5C811.286 484.5 816.036 485.817 819.936 488.45C823.869 491.05 826.786 494.733 828.686 499.5C830.586 504.267 831.303 509.883 830.836 516.35H818.886V511.95C818.853 506.083 817.819 501.8 815.786 499.1C813.753 496.4 810.553 495.05 806.186 495.05C801.253 495.05 797.586 496.583 795.186 499.65C792.786 502.683 791.586 507.133 791.586 513C791.586 518.467 792.786 522.7 795.186 525.7C797.586 528.7 801.086 530.2 805.686 530.2C808.653 530.2 811.203 529.55 813.336 528.25C815.503 526.917 817.169 525 818.336 522.5L830.236 526.1C828.169 530.967 824.969 534.75 820.636 537.45C816.336 540.15 811.586 541.5 806.386 541.5ZM787.786 516.35V507.25H824.936V516.35H787.786Z" fill="white"/>
<circle cx="199.025" cy="472.025" r="10.0246" fill="white"/>
<circle cx="225.716" cy="472.025" r="10.0246" fill="white"/>
<circle cx="252.284" cy="472.025" r="10.0246" fill="white"/>
<ellipse cx="199.025" cy="499.147" rx="10.0246" ry="10.0861" fill="white"/>
<ellipse cx="252.284" cy="499.147" rx="10.0246" ry="10.0861" fill="white"/>
<ellipse cx="199.025" cy="526.084" rx="10.0246" ry="10.0861" fill="white"/>
<ellipse cx="252.284" cy="526.084" rx="10.0246" ry="10.0861" fill="white"/>
<line x1="199.355" y1="472.086" x2="199.355" y2="526.083" stroke="white" stroke-width="3"/>
<line x1="197.886" y1="471.389" x2="252.325" y2="472.195" stroke="white" stroke-width="3"/>
<line x1="252.738" y1="472.086" x2="252.738" y2="526.083" stroke="white" stroke-width="3"/>
<ellipse cx="225.716" cy="499.147" rx="10.0246" ry="10.0861" fill="#0EFF00"/>
<ellipse cx="278.976" cy="499.147" rx="10.0246" ry="10.0861" fill="#0EFF00"/>
<ellipse cx="225.716" cy="526.084" rx="10.0246" ry="10.0861" fill="#0EFF00"/>
<ellipse cx="278.976" cy="526.084" rx="10.0246" ry="10.0861" fill="#0EFF00"/>
<circle cx="225.716" cy="553.206" r="10.0246" fill="#0EFF00"/>
<circle cx="252.284" cy="553.206" r="10.0246" fill="#0EFF00"/>
<circle cx="278.976" cy="553.206" r="10.0246" fill="#0EFF00"/>
<line x1="225.712" y1="498.004" x2="280.151" y2="498.811" stroke="#0EFF00" stroke-width="3"/>
<line x1="225.712" y1="525.424" x2="280.151" y2="526.231" stroke="#0EFF00" stroke-width="3"/>
<line x1="225.712" y1="552.444" x2="280.151" y2="553.25" stroke="#0EFF00" stroke-width="3"/>
<circle cx="252.346" cy="499.147" r="5.04305" fill="black"/>
<circle cx="252.346" cy="526.084" r="5.04305" fill="black"/>
<line x1="226.416" y1="499.885" x2="226.416" y2="526.084" stroke="#0EFF00" stroke-width="3"/>
<line x1="280.045" y1="526.084" x2="280.045" y2="552.283" stroke="#0EFF00" stroke-width="3"/>
</svg>
