<svg width="648" height="100" viewBox="0 0 648 100" fill="none" xmlns="http://www.w3.org/2000/svg">
<path d="M173.358 76V50C173.358 48.3 173.241 46.4167 173.008 44.35C172.774 42.2833 172.224 40.3 171.358 38.4C170.524 36.4667 169.258 34.8833 167.558 33.65C165.891 32.4167 163.624 31.8 160.758 31.8C159.224 31.8 157.708 32.05 156.208 32.55C154.708 33.05 153.341 33.9167 152.108 35.15C150.908 36.35 149.941 38.0167 149.208 40.15C148.474 42.25 148.108 44.95 148.108 48.25L140.958 45.2C140.958 40.6 141.841 36.4333 143.608 32.7C145.408 28.9667 148.041 26 151.508 23.8C154.974 21.5667 159.241 20.45 164.308 20.45C168.308 20.45 171.608 21.1167 174.208 22.45C176.808 23.7833 178.874 25.4833 180.408 27.55C181.941 29.6167 183.074 31.8167 183.808 34.15C184.541 36.4833 185.008 38.7 185.208 40.8C185.441 42.8667 185.558 44.55 185.558 45.85V76H173.358ZM135.908 76V22H146.658V38.75H148.108V76H135.908ZM208.705 77.5C204.805 77.5 201.505 76.7667 198.805 75.3C196.105 73.8 194.055 71.8167 192.655 69.35C191.289 66.8833 190.605 64.1667 190.605 61.2C190.605 58.6 191.039 56.2667 191.905 54.2C192.772 52.1 194.105 50.3 195.905 48.8C197.705 47.2667 200.039 46.0167 202.905 45.05C205.072 44.35 207.605 43.7167 210.505 43.15C213.439 42.5833 216.605 42.0667 220.005 41.6C223.439 41.1 227.022 40.5667 230.755 40L226.455 42.45C226.489 38.7167 225.655 35.9667 223.955 34.2C222.255 32.4333 219.389 31.55 215.355 31.55C212.922 31.55 210.572 32.1167 208.305 33.25C206.039 34.3833 204.455 36.3333 203.555 39.1L192.555 35.65C193.889 31.0833 196.422 27.4167 200.155 24.65C203.922 21.8833 208.989 20.5 215.355 20.5C220.155 20.5 224.372 21.2833 228.005 22.85C231.672 24.4167 234.389 26.9833 236.155 30.55C237.122 32.45 237.705 34.4 237.905 36.4C238.105 38.3667 238.205 40.5167 238.205 42.85V76H227.655V64.3L229.405 66.2C226.972 70.1 224.122 72.9667 220.855 74.8C217.622 76.6 213.572 77.5 208.705 77.5ZM211.105 67.9C213.839 67.9 216.172 67.4167 218.105 66.45C220.039 65.4833 221.572 64.3 222.705 62.9C223.872 61.5 224.655 60.1833 225.055 58.95C225.689 57.4167 226.039 55.6667 226.105 53.7C226.205 51.7 226.255 50.0833 226.255 48.85L229.955 49.95C226.322 50.5167 223.205 51.0167 220.605 51.45C218.005 51.8833 215.772 52.3 213.905 52.7C212.039 53.0667 210.389 53.4833 208.955 53.95C207.555 54.45 206.372 55.0333 205.405 55.7C204.439 56.3667 203.689 57.1333 203.155 58C202.655 58.8667 202.405 59.8833 202.405 61.05C202.405 62.3833 202.739 63.5667 203.405 64.6C204.072 65.6 205.039 66.4 206.305 67C207.605 67.6 209.205 67.9 211.105 67.9ZM311.073 76V43.2C311.073 39.5 310.156 36.6167 308.323 34.55C306.489 32.45 304.006 31.4 300.873 31.4C298.939 31.4 297.206 31.85 295.673 32.75C294.139 33.6167 292.923 34.9167 292.023 36.65C291.123 38.35 290.673 40.3833 290.673 42.75L285.323 39.6C285.289 35.8667 286.123 32.5833 287.823 29.75C289.556 26.8833 291.889 24.65 294.823 23.05C297.756 21.45 301.023 20.65 304.623 20.65C310.589 20.65 315.156 22.45 318.323 26.05C321.523 29.6167 323.123 34.3167 323.123 40.15V76H311.073ZM246.123 76V22H256.773V38.75H258.273V76H246.123ZM278.673 76V43.35C278.673 39.5833 277.756 36.65 275.923 34.55C274.089 32.45 271.589 31.4 268.423 31.4C265.356 31.4 262.889 32.45 261.023 34.55C259.189 36.65 258.273 39.3833 258.273 42.75L252.873 39.15C252.873 35.65 253.739 32.5 255.473 29.7C257.206 26.9 259.539 24.7 262.473 23.1C265.439 21.4667 268.756 20.65 272.423 20.65C276.456 20.65 279.823 21.5167 282.523 23.25C285.256 24.95 287.289 27.2833 288.623 30.25C289.989 33.1833 290.673 36.5 290.673 40.2V76H278.673ZM354.835 77.5C349.368 77.5 344.568 76.3167 340.435 73.95C336.302 71.5833 333.068 68.3 330.735 64.1C328.435 59.9 327.285 55.0667 327.285 49.6C327.285 43.7 328.418 38.5833 330.685 34.25C332.952 29.8833 336.102 26.5 340.135 24.1C344.168 21.7 348.835 20.5 354.135 20.5C359.735 20.5 364.485 21.8167 368.385 24.45C372.318 27.05 375.235 30.7333 377.135 35.5C379.035 40.2667 379.752 45.8833 379.285 52.35H367.335V47.95C367.302 42.0833 366.268 37.8 364.235 35.1C362.202 32.4 359.002 31.05 354.635 31.05C349.702 31.05 346.035 32.5833 343.635 35.65C341.235 38.6833 340.035 43.1333 340.035 49C340.035 54.4667 341.235 58.7 343.635 61.7C346.035 64.7 349.535 66.2 354.135 66.2C357.102 66.2 359.652 65.55 361.785 64.25C363.952 62.9167 365.618 61 366.785 58.5L378.685 62.1C376.618 66.9667 373.418 70.75 369.085 73.45C364.785 76.15 360.035 77.5 354.835 77.5ZM336.235 52.35V43.25H373.385V52.35H336.235ZM406.291 77.5C399.625 77.5 394.208 76 390.041 73C385.875 70 383.341 65.7833 382.441 60.35L394.741 58.45C395.375 61.1167 396.775 63.2167 398.941 64.75C401.108 66.2833 403.841 67.05 407.141 67.05C410.041 67.05 412.275 66.4833 413.841 65.35C415.441 64.1833 416.241 62.6 416.241 60.6C416.241 59.3667 415.941 58.3833 415.341 57.65C414.775 56.8833 413.508 56.15 411.541 55.45C409.575 54.75 406.558 53.8667 402.491 52.8C397.958 51.6 394.358 50.3167 391.691 48.95C389.025 47.55 387.108 45.9 385.941 44C384.775 42.1 384.191 39.8 384.191 37.1C384.191 33.7333 385.075 30.8 386.841 28.3C388.608 25.8 391.075 23.8833 394.241 22.55C397.408 21.1833 401.141 20.5 405.441 20.5C409.641 20.5 413.358 21.15 416.591 22.45C419.858 23.75 422.491 25.6 424.491 28C426.491 30.4 427.725 33.2167 428.191 36.45L415.891 38.65C415.591 36.35 414.541 34.5333 412.741 33.2C410.975 31.8667 408.608 31.1167 405.641 30.95C402.808 30.7833 400.525 31.2167 398.791 32.25C397.058 33.25 396.191 34.6667 396.191 36.5C396.191 37.5333 396.541 38.4167 397.241 39.15C397.941 39.8833 399.341 40.6167 401.441 41.35C403.575 42.0833 406.741 42.9833 410.941 44.05C415.241 45.15 418.675 46.4167 421.241 47.85C423.841 49.25 425.708 50.9333 426.841 52.9C428.008 54.8667 428.591 57.25 428.591 60.05C428.591 65.4833 426.608 69.75 422.641 72.85C418.708 75.95 413.258 77.5 406.291 77.5ZM460.493 77.5C455.226 77.5 450.81 76.25 447.243 73.75C443.676 71.25 440.993 67.85 439.193 63.55C437.393 59.2167 436.493 54.3667 436.493 49C436.493 43.5667 437.393 38.7 439.193 34.4C440.993 30.1 443.626 26.7167 447.093 24.25C450.593 21.75 454.91 20.5 460.043 20.5C465.143 20.5 469.56 21.75 473.293 24.25C477.06 26.7167 479.976 30.1 482.043 34.4C484.11 38.6667 485.143 43.5333 485.143 49C485.143 54.4 484.126 59.25 482.093 63.55C480.06 67.85 477.193 71.25 473.493 73.75C469.793 76.25 465.46 77.5 460.493 77.5ZM434.443 100V22H445.093V59.9H446.593V100H434.443ZM458.643 66.7C461.776 66.7 464.36 65.9167 466.393 64.35C468.426 62.7833 469.926 60.6667 470.893 58C471.893 55.3 472.393 52.3 472.393 49C472.393 45.7333 471.893 42.7667 470.893 40.1C469.893 37.4 468.343 35.2667 466.243 33.7C464.143 32.1 461.476 31.3 458.243 31.3C455.176 31.3 452.676 32.05 450.743 33.55C448.81 35.0167 447.376 37.0833 446.443 39.75C445.543 42.3833 445.093 45.4667 445.093 49C445.093 52.5 445.543 55.5833 446.443 58.25C447.376 60.9167 448.826 63 450.793 64.5C452.793 65.9667 455.41 66.7 458.643 66.7ZM506.264 77.5C502.364 77.5 499.064 76.7667 496.364 75.3C493.664 73.8 491.614 71.8167 490.214 69.35C488.847 66.8833 488.164 64.1667 488.164 61.2C488.164 58.6 488.597 56.2667 489.464 54.2C490.331 52.1 491.664 50.3 493.464 48.8C495.264 47.2667 497.597 46.0167 500.464 45.05C502.631 44.35 505.164 43.7167 508.064 43.15C510.997 42.5833 514.164 42.0667 517.564 41.6C520.997 41.1 524.581 40.5667 528.314 40L524.014 42.45C524.047 38.7167 523.214 35.9667 521.514 34.2C519.814 32.4333 516.947 31.55 512.914 31.55C510.481 31.55 508.131 32.1167 505.864 33.25C503.597 34.3833 502.014 36.3333 501.114 39.1L490.114 35.65C491.447 31.0833 493.981 27.4167 497.714 24.65C501.481 21.8833 506.547 20.5 512.914 20.5C517.714 20.5 521.931 21.2833 525.564 22.85C529.231 24.4167 531.947 26.9833 533.714 30.55C534.681 32.45 535.264 34.4 535.464 36.4C535.664 38.3667 535.764 40.5167 535.764 42.85V76H525.214V64.3L526.964 66.2C524.531 70.1 521.681 72.9667 518.414 74.8C515.181 76.6 511.131 77.5 506.264 77.5ZM508.664 67.9C511.397 67.9 513.731 67.4167 515.664 66.45C517.597 65.4833 519.131 64.3 520.264 62.9C521.431 61.5 522.214 60.1833 522.614 58.95C523.247 57.4167 523.597 55.6667 523.664 53.7C523.764 51.7 523.814 50.0833 523.814 48.85L527.514 49.95C523.881 50.5167 520.764 51.0167 518.164 51.45C515.564 51.8833 513.331 52.3 511.464 52.7C509.597 53.0667 507.947 53.4833 506.514 53.95C505.114 54.45 503.931 55.0333 502.964 55.7C501.997 56.3667 501.247 57.1333 500.714 58C500.214 58.8667 499.964 59.8833 499.964 61.05C499.964 62.3833 500.297 63.5667 500.964 64.6C501.631 65.6 502.597 66.4 503.864 67C505.164 67.6 506.764 67.9 508.664 67.9ZM567.231 77.5C561.665 77.5 556.915 76.2667 552.981 73.8C549.048 71.3 546.031 67.9 543.931 63.6C541.865 59.3 540.815 54.4333 540.781 49C540.815 43.4667 541.898 38.5667 544.031 34.3C546.198 30 549.265 26.6333 553.231 24.2C557.198 21.7333 561.915 20.5 567.381 20.5C573.515 20.5 578.698 22.05 582.931 25.15C587.198 28.2167 589.981 32.4167 591.281 37.75L579.281 41C578.348 38.1 576.798 35.85 574.631 34.25C572.465 32.6167 569.998 31.8 567.231 31.8C564.098 31.8 561.515 32.55 559.481 34.05C557.448 35.5167 555.948 37.55 554.981 40.15C554.015 42.75 553.531 45.7 553.531 49C553.531 54.1333 554.681 58.2833 556.981 61.45C559.281 64.6167 562.698 66.2 567.231 66.2C570.431 66.2 572.948 65.4667 574.781 64C576.648 62.5333 578.048 60.4167 578.981 57.65L591.281 60.4C589.615 65.9 586.698 70.1333 582.531 73.1C578.365 76.0333 573.265 77.5 567.231 77.5ZM619.386 77.5C613.919 77.5 609.119 76.3167 604.986 73.95C600.853 71.5833 597.619 68.3 595.286 64.1C592.986 59.9 591.836 55.0667 591.836 49.6C591.836 43.7 592.969 38.5833 595.236 34.25C597.503 29.8833 600.653 26.5 604.686 24.1C608.719 21.7 613.386 20.5 618.686 20.5C624.286 20.5 629.036 21.8167 632.936 24.45C636.869 27.05 639.786 30.7333 641.686 35.5C643.586 40.2667 644.303 45.8833 643.836 52.35H631.886V47.95C631.853 42.0833 630.819 37.8 628.786 35.1C626.753 32.4 623.553 31.05 619.186 31.05C614.253 31.05 610.586 32.5833 608.186 35.65C605.786 38.6833 604.586 43.1333 604.586 49C604.586 54.4667 605.786 58.7 608.186 61.7C610.586 64.7 614.086 66.2 618.686 66.2C621.653 66.2 624.203 65.55 626.336 64.25C628.503 62.9167 630.169 61 631.336 58.5L643.236 62.1C641.169 66.9667 637.969 70.75 633.636 73.45C629.336 76.15 624.586 77.5 619.386 77.5ZM600.786 52.35V43.25H637.936V52.35H600.786Z" fill="black"/>
<ellipse cx="9.02211" cy="12.9125" rx="9.02211" ry="8.91249" fill="black"/>
<ellipse cx="33.0441" cy="12.9125" rx="9.02211" ry="8.91249" fill="black"/>
<ellipse cx="56.9552" cy="12.9125" rx="9.02211" ry="8.91249" fill="black"/>
<ellipse cx="9.02211" cy="37.0258" rx="9.02211" ry="8.96717" fill="black"/>
<ellipse cx="56.9552" cy="37.0258" rx="9.02211" ry="8.96717" fill="black"/>
<ellipse cx="9.02211" cy="60.976" rx="9.02211" ry="8.96717" fill="black"/>
<ellipse cx="56.9552" cy="60.976" rx="9.02211" ry="8.96717" fill="black"/>
<line x1="9.4707" y1="12.9668" x2="9.4707" y2="60.9739" stroke="black" stroke-width="3"/>
<line y1="-1.5" x2="49.0009" y2="-1.5" transform="matrix(0.999893 0.0146332 -0.0149954 0.999888 7.97754 13.6807)" stroke="black" stroke-width="3"/>
<line x1="57.5146" y1="12.9668" x2="57.5146" y2="60.9739" stroke="black" stroke-width="3"/>
<ellipse cx="33.0441" cy="37.0258" rx="9.02211" ry="8.96717" fill="black"/>
<ellipse cx="80.9777" cy="37.0258" rx="9.02211" ry="8.96717" fill="black"/>
<ellipse cx="33.0441" cy="60.976" rx="9.02211" ry="8.96717" fill="black"/>
<ellipse cx="80.9777" cy="60.976" rx="9.02211" ry="8.96717" fill="black"/>
<ellipse cx="33.0441" cy="85.0883" rx="9.02211" ry="8.91249" fill="black"/>
<ellipse cx="56.9552" cy="85.0883" rx="9.02211" ry="8.91249" fill="black"/>
<ellipse cx="80.9777" cy="85.0883" rx="9.02211" ry="8.91249" fill="black"/>
<line y1="-1.5" x2="49.0009" y2="-1.5" transform="matrix(0.999893 0.0146332 -0.0149954 0.999888 33.019 37.3428)" stroke="black" stroke-width="3"/>
<line y1="-1.5" x2="49.0009" y2="-1.5" transform="matrix(0.999893 0.0146332 -0.0149954 0.999888 33.019 61.7217)" stroke="black" stroke-width="3"/>
<line y1="-1.5" x2="49.0009" y2="-1.5" transform="matrix(0.999893 0.0146332 -0.0149954 0.999888 33.019 85.7422)" stroke="black" stroke-width="3"/>
<ellipse cx="57.0109" cy="37.0256" rx="4.53873" ry="4.48358" fill="white"/>
<ellipse cx="57.0109" cy="37.0256" rx="4.53873" ry="4.48358" fill="white"/>
<ellipse cx="57.0109" cy="60.9748" rx="4.53873" ry="4.48358" fill="white"/>
<line x1="33.8252" y1="37.6826" x2="33.8252" y2="60.9754" stroke="black" stroke-width="3"/>
<line x1="82.0898" y1="60.9746" x2="82.0898" y2="84.2674" stroke="black" stroke-width="3"/>
</svg>
